<mxfile host="app.diagrams.net" agent="Mozilla/5.0 (Macintosh; Intel Mac OS X 10_15_7) AppleWebKit/605.1.15 (KHTML, like Gecko) Version/26.0.1 Safari/605.1.15" version="28.2.5">
  <diagram name="Page-1" id="uD5Ug05GKIDlDVDptqAa">
    <mxGraphModel dx="1018" dy="601" grid="1" gridSize="10" guides="1" tooltips="1" connect="1" arrows="1" fold="1" page="1" pageScale="1" pageWidth="1169" pageHeight="827" math="0" shadow="0">
      <root>
        <mxCell id="0" />
        <mxCell id="1" parent="0" />
        <mxCell id="B8HwfaoiHPc71-ni4vZY-14" style="edgeStyle=orthogonalEdgeStyle;rounded=0;orthogonalLoop=1;jettySize=auto;html=1;exitX=0.5;exitY=1;exitDx=0;exitDy=0;entryX=0.5;entryY=0;entryDx=0;entryDy=0;" edge="1" parent="1" source="B8HwfaoiHPc71-ni4vZY-1" target="B8HwfaoiHPc71-ni4vZY-10">
          <mxGeometry relative="1" as="geometry" />
        </mxCell>
        <mxCell id="B8HwfaoiHPc71-ni4vZY-1" value="Rods" style="rounded=0;whiteSpace=wrap;html=1;" vertex="1" parent="1">
          <mxGeometry x="40" y="110" width="120" height="60" as="geometry" />
        </mxCell>
        <mxCell id="B8HwfaoiHPc71-ni4vZY-13" style="edgeStyle=orthogonalEdgeStyle;rounded=0;orthogonalLoop=1;jettySize=auto;html=1;exitX=0.5;exitY=1;exitDx=0;exitDy=0;entryX=0.5;entryY=0;entryDx=0;entryDy=0;" edge="1" parent="1" source="B8HwfaoiHPc71-ni4vZY-3" target="B8HwfaoiHPc71-ni4vZY-12">
          <mxGeometry relative="1" as="geometry" />
        </mxCell>
        <mxCell id="B8HwfaoiHPc71-ni4vZY-3" value="Cones (with&amp;nbsp;&lt;div&gt;opponent channels)&lt;/div&gt;" style="rounded=0;whiteSpace=wrap;html=1;" vertex="1" parent="1">
          <mxGeometry x="300" y="110" width="120" height="60" as="geometry" />
        </mxCell>
        <mxCell id="B8HwfaoiHPc71-ni4vZY-6" style="edgeStyle=orthogonalEdgeStyle;rounded=0;orthogonalLoop=1;jettySize=auto;html=1;entryX=0.5;entryY=0;entryDx=0;entryDy=0;exitX=0.5;exitY=1;exitDx=0;exitDy=0;" edge="1" parent="1" source="B8HwfaoiHPc71-ni4vZY-4" target="B8HwfaoiHPc71-ni4vZY-1">
          <mxGeometry relative="1" as="geometry">
            <mxPoint x="230" y="-1" as="sourcePoint" />
            <Array as="points">
              <mxPoint x="230" y="90" />
              <mxPoint x="100" y="90" />
            </Array>
          </mxGeometry>
        </mxCell>
        <mxCell id="B8HwfaoiHPc71-ni4vZY-4" value="Multichromatic light" style="text;html=1;align=center;verticalAlign=middle;whiteSpace=wrap;rounded=0;" vertex="1" parent="1">
          <mxGeometry x="170" y="20" width="120" height="30" as="geometry" />
        </mxCell>
        <mxCell id="B8HwfaoiHPc71-ni4vZY-8" style="edgeStyle=orthogonalEdgeStyle;rounded=0;orthogonalLoop=1;jettySize=auto;html=1;entryX=0.5;entryY=0;entryDx=0;entryDy=0;exitX=0.5;exitY=1;exitDx=0;exitDy=0;" edge="1" parent="1" source="B8HwfaoiHPc71-ni4vZY-4" target="B8HwfaoiHPc71-ni4vZY-3">
          <mxGeometry relative="1" as="geometry">
            <mxPoint x="270" y="29" as="sourcePoint" />
            <mxPoint x="370" y="-2" as="targetPoint" />
            <Array as="points">
              <mxPoint x="230" y="90" />
              <mxPoint x="360" y="90" />
            </Array>
          </mxGeometry>
        </mxCell>
        <mxCell id="B8HwfaoiHPc71-ni4vZY-9" value="Photoisomerization" style="text;html=1;align=center;verticalAlign=middle;whiteSpace=wrap;rounded=0;" vertex="1" parent="1">
          <mxGeometry x="260" y="50" width="60" height="30" as="geometry" />
        </mxCell>
        <mxCell id="B8HwfaoiHPc71-ni4vZY-22" style="edgeStyle=orthogonalEdgeStyle;rounded=0;orthogonalLoop=1;jettySize=auto;html=1;exitX=0.5;exitY=1;exitDx=0;exitDy=0;entryX=0.5;entryY=0;entryDx=0;entryDy=0;" edge="1" parent="1" source="B8HwfaoiHPc71-ni4vZY-10" target="B8HwfaoiHPc71-ni4vZY-17">
          <mxGeometry relative="1" as="geometry" />
        </mxCell>
        <mxCell id="B8HwfaoiHPc71-ni4vZY-10" value="ON rod bipolar cells" style="rounded=0;whiteSpace=wrap;html=1;" vertex="1" parent="1">
          <mxGeometry x="40" y="219" width="120" height="60" as="geometry" />
        </mxCell>
        <mxCell id="B8HwfaoiHPc71-ni4vZY-21" style="edgeStyle=orthogonalEdgeStyle;rounded=0;orthogonalLoop=1;jettySize=auto;html=1;exitX=0.5;exitY=1;exitDx=0;exitDy=0;entryX=0.5;entryY=0;entryDx=0;entryDy=0;" edge="1" parent="1" source="B8HwfaoiHPc71-ni4vZY-12" target="B8HwfaoiHPc71-ni4vZY-18">
          <mxGeometry relative="1" as="geometry" />
        </mxCell>
        <mxCell id="B8HwfaoiHPc71-ni4vZY-24" style="edgeStyle=orthogonalEdgeStyle;rounded=0;orthogonalLoop=1;jettySize=auto;html=1;exitX=0.5;exitY=1;exitDx=0;exitDy=0;" edge="1" parent="1" source="B8HwfaoiHPc71-ni4vZY-12" target="B8HwfaoiHPc71-ni4vZY-23">
          <mxGeometry relative="1" as="geometry" />
        </mxCell>
        <mxCell id="B8HwfaoiHPc71-ni4vZY-12" value="Horizontal cells" style="rounded=0;whiteSpace=wrap;html=1;" vertex="1" parent="1">
          <mxGeometry x="300" y="219" width="120" height="60" as="geometry" />
        </mxCell>
        <mxCell id="B8HwfaoiHPc71-ni4vZY-15" value="3 channels" style="text;html=1;align=center;verticalAlign=middle;whiteSpace=wrap;rounded=0;" vertex="1" parent="1">
          <mxGeometry x="360" y="180" width="80" height="30" as="geometry" />
        </mxCell>
        <mxCell id="B8HwfaoiHPc71-ni4vZY-16" value="1 channel" style="text;html=1;align=center;verticalAlign=middle;whiteSpace=wrap;rounded=0;" vertex="1" parent="1">
          <mxGeometry x="90" y="180" width="80" height="30" as="geometry" />
        </mxCell>
        <mxCell id="B8HwfaoiHPc71-ni4vZY-25" style="edgeStyle=orthogonalEdgeStyle;rounded=0;orthogonalLoop=1;jettySize=auto;html=1;exitX=0.5;exitY=1;exitDx=0;exitDy=0;entryX=0;entryY=0.5;entryDx=0;entryDy=0;" edge="1" parent="1" source="B8HwfaoiHPc71-ni4vZY-17" target="B8HwfaoiHPc71-ni4vZY-18">
          <mxGeometry relative="1" as="geometry" />
        </mxCell>
        <mxCell id="B8HwfaoiHPc71-ni4vZY-26" style="edgeStyle=orthogonalEdgeStyle;rounded=0;orthogonalLoop=1;jettySize=auto;html=1;exitX=1;exitY=0.75;exitDx=0;exitDy=0;entryX=0.25;entryY=0;entryDx=0;entryDy=0;" edge="1" parent="1" source="B8HwfaoiHPc71-ni4vZY-17" target="B8HwfaoiHPc71-ni4vZY-23">
          <mxGeometry relative="1" as="geometry" />
        </mxCell>
        <mxCell id="B8HwfaoiHPc71-ni4vZY-17" value="AII amacrine cells" style="rounded=0;whiteSpace=wrap;html=1;" vertex="1" parent="1">
          <mxGeometry x="40" y="318" width="120" height="60" as="geometry" />
        </mxCell>
        <mxCell id="B8HwfaoiHPc71-ni4vZY-33" style="edgeStyle=orthogonalEdgeStyle;rounded=0;orthogonalLoop=1;jettySize=auto;html=1;exitX=0.5;exitY=1;exitDx=0;exitDy=0;entryX=0.5;entryY=0;entryDx=0;entryDy=0;" edge="1" parent="1" source="B8HwfaoiHPc71-ni4vZY-18" target="B8HwfaoiHPc71-ni4vZY-28">
          <mxGeometry relative="1" as="geometry">
            <Array as="points">
              <mxPoint x="270" y="458" />
              <mxPoint x="270" y="510" />
              <mxPoint x="360" y="510" />
            </Array>
          </mxGeometry>
        </mxCell>
        <mxCell id="B8HwfaoiHPc71-ni4vZY-35" style="edgeStyle=orthogonalEdgeStyle;rounded=0;orthogonalLoop=1;jettySize=auto;html=1;exitX=0;exitY=1;exitDx=0;exitDy=0;entryX=0.5;entryY=0;entryDx=0;entryDy=0;" edge="1" parent="1" target="B8HwfaoiHPc71-ni4vZY-32">
          <mxGeometry relative="1" as="geometry">
            <mxPoint x="220" y="448" as="sourcePoint" />
            <mxPoint x="80" y="648" as="targetPoint" />
          </mxGeometry>
        </mxCell>
        <mxCell id="B8HwfaoiHPc71-ni4vZY-38" style="edgeStyle=orthogonalEdgeStyle;rounded=0;orthogonalLoop=1;jettySize=auto;html=1;exitX=0.25;exitY=1;exitDx=0;exitDy=0;" edge="1" parent="1" source="B8HwfaoiHPc71-ni4vZY-18" target="B8HwfaoiHPc71-ni4vZY-31">
          <mxGeometry relative="1" as="geometry">
            <Array as="points">
              <mxPoint x="250" y="489" />
              <mxPoint x="210" y="489" />
            </Array>
          </mxGeometry>
        </mxCell>
        <mxCell id="B8HwfaoiHPc71-ni4vZY-39" style="edgeStyle=orthogonalEdgeStyle;rounded=0;orthogonalLoop=1;jettySize=auto;html=1;exitX=0.75;exitY=1;exitDx=0;exitDy=0;entryX=0.25;entryY=0;entryDx=0;entryDy=0;" edge="1" parent="1" source="B8HwfaoiHPc71-ni4vZY-18" target="B8HwfaoiHPc71-ni4vZY-30">
          <mxGeometry relative="1" as="geometry">
            <Array as="points">
              <mxPoint x="290" y="458" />
              <mxPoint x="290" y="639" />
              <mxPoint x="310" y="639" />
            </Array>
          </mxGeometry>
        </mxCell>
        <mxCell id="B8HwfaoiHPc71-ni4vZY-18" value="ON cone bipolar cells" style="rounded=0;whiteSpace=wrap;html=1;" vertex="1" parent="1">
          <mxGeometry x="220" y="398" width="120" height="60" as="geometry" />
        </mxCell>
        <mxCell id="B8HwfaoiHPc71-ni4vZY-19" value="3 channels" style="text;html=1;align=center;verticalAlign=middle;whiteSpace=wrap;rounded=0;" vertex="1" parent="1">
          <mxGeometry x="360" y="288" width="80" height="30" as="geometry" />
        </mxCell>
        <mxCell id="B8HwfaoiHPc71-ni4vZY-20" value="1 channel" style="text;html=1;align=center;verticalAlign=middle;whiteSpace=wrap;rounded=0;" vertex="1" parent="1">
          <mxGeometry x="100" y="288" width="80" height="30" as="geometry" />
        </mxCell>
        <mxCell id="B8HwfaoiHPc71-ni4vZY-34" style="edgeStyle=orthogonalEdgeStyle;rounded=0;orthogonalLoop=1;jettySize=auto;html=1;exitX=0.5;exitY=1;exitDx=0;exitDy=0;entryX=0.5;entryY=0;entryDx=0;entryDy=0;" edge="1" parent="1" source="B8HwfaoiHPc71-ni4vZY-23" target="B8HwfaoiHPc71-ni4vZY-28">
          <mxGeometry relative="1" as="geometry">
            <mxPoint x="360" y="519" as="targetPoint" />
            <Array as="points">
              <mxPoint x="480" y="458" />
              <mxPoint x="480" y="510" />
              <mxPoint x="360" y="510" />
            </Array>
          </mxGeometry>
        </mxCell>
        <mxCell id="B8HwfaoiHPc71-ni4vZY-36" style="edgeStyle=orthogonalEdgeStyle;rounded=0;orthogonalLoop=1;jettySize=auto;html=1;exitX=0.25;exitY=1;exitDx=0;exitDy=0;entryX=0.75;entryY=0;entryDx=0;entryDy=0;" edge="1" parent="1" source="B8HwfaoiHPc71-ni4vZY-23" target="B8HwfaoiHPc71-ni4vZY-32">
          <mxGeometry relative="1" as="geometry">
            <Array as="points">
              <mxPoint x="420" y="458" />
              <mxPoint x="420" y="469" />
              <mxPoint x="110" y="469" />
            </Array>
          </mxGeometry>
        </mxCell>
        <mxCell id="B8HwfaoiHPc71-ni4vZY-40" style="edgeStyle=orthogonalEdgeStyle;rounded=0;orthogonalLoop=1;jettySize=auto;html=1;exitX=0.5;exitY=1;exitDx=0;exitDy=0;entryX=0.75;entryY=0;entryDx=0;entryDy=0;" edge="1" parent="1" source="B8HwfaoiHPc71-ni4vZY-23" target="B8HwfaoiHPc71-ni4vZY-31">
          <mxGeometry relative="1" as="geometry">
            <Array as="points">
              <mxPoint x="440" y="520" />
              <mxPoint x="240" y="520" />
            </Array>
          </mxGeometry>
        </mxCell>
        <mxCell id="B8HwfaoiHPc71-ni4vZY-41" style="edgeStyle=orthogonalEdgeStyle;rounded=0;orthogonalLoop=1;jettySize=auto;html=1;exitX=0.658;exitY=0.983;exitDx=0;exitDy=0;entryX=0.75;entryY=0;entryDx=0;entryDy=0;exitPerimeter=0;" edge="1" parent="1" source="B8HwfaoiHPc71-ni4vZY-23" target="B8HwfaoiHPc71-ni4vZY-30">
          <mxGeometry relative="1" as="geometry">
            <Array as="points">
              <mxPoint x="459" y="458" />
              <mxPoint x="460" y="458" />
              <mxPoint x="460" y="620" />
              <mxPoint x="370" y="620" />
            </Array>
          </mxGeometry>
        </mxCell>
        <mxCell id="B8HwfaoiHPc71-ni4vZY-23" value="OFF cone bipolar cells" style="rounded=0;whiteSpace=wrap;html=1;" vertex="1" parent="1">
          <mxGeometry x="380" y="398" width="120" height="60" as="geometry" />
        </mxCell>
        <mxCell id="B8HwfaoiHPc71-ni4vZY-27" value="1 channel" style="text;html=1;align=center;verticalAlign=middle;whiteSpace=wrap;rounded=0;" vertex="1" parent="1">
          <mxGeometry x="110" y="398" width="80" height="30" as="geometry" />
        </mxCell>
        <mxCell id="B8HwfaoiHPc71-ni4vZY-37" style="edgeStyle=orthogonalEdgeStyle;rounded=0;orthogonalLoop=1;jettySize=auto;html=1;exitX=0.5;exitY=1;exitDx=0;exitDy=0;" edge="1" parent="1" source="B8HwfaoiHPc71-ni4vZY-28" target="B8HwfaoiHPc71-ni4vZY-29">
          <mxGeometry relative="1" as="geometry">
            <Array as="points">
              <mxPoint x="400" y="595" />
              <mxPoint x="400" y="635" />
              <mxPoint x="470" y="635" />
            </Array>
          </mxGeometry>
        </mxCell>
        <mxCell id="B8HwfaoiHPc71-ni4vZY-28" value="Starburst amacrine cells" style="rounded=0;whiteSpace=wrap;html=1;" vertex="1" parent="1">
          <mxGeometry x="300" y="535" width="120" height="60" as="geometry" />
        </mxCell>
        <mxCell id="B8HwfaoiHPc71-ni4vZY-54" style="edgeStyle=orthogonalEdgeStyle;rounded=0;orthogonalLoop=1;jettySize=auto;html=1;exitX=0.5;exitY=1;exitDx=0;exitDy=0;entryX=0.5;entryY=1;entryDx=0;entryDy=0;" edge="1" parent="1" source="B8HwfaoiHPc71-ni4vZY-29" target="B8HwfaoiHPc71-ni4vZY-50">
          <mxGeometry relative="1" as="geometry">
            <mxPoint x="840" y="810" as="targetPoint" />
          </mxGeometry>
        </mxCell>
        <mxCell id="B8HwfaoiHPc71-ni4vZY-29" value="Direction selective ganglion cells" style="rounded=0;whiteSpace=wrap;html=1;" vertex="1" parent="1">
          <mxGeometry x="410" y="675" width="120" height="60" as="geometry" />
        </mxCell>
        <mxCell id="B8HwfaoiHPc71-ni4vZY-53" style="edgeStyle=orthogonalEdgeStyle;rounded=0;orthogonalLoop=1;jettySize=auto;html=1;exitX=0.5;exitY=1;exitDx=0;exitDy=0;entryX=0.5;entryY=1;entryDx=0;entryDy=0;" edge="1" parent="1" source="B8HwfaoiHPc71-ni4vZY-30" target="B8HwfaoiHPc71-ni4vZY-50">
          <mxGeometry relative="1" as="geometry" />
        </mxCell>
        <mxCell id="B8HwfaoiHPc71-ni4vZY-30" value="Small bi-stratified ganglion cells" style="rounded=0;whiteSpace=wrap;html=1;" vertex="1" parent="1">
          <mxGeometry x="280" y="675" width="120" height="60" as="geometry" />
        </mxCell>
        <mxCell id="B8HwfaoiHPc71-ni4vZY-52" style="edgeStyle=orthogonalEdgeStyle;rounded=0;orthogonalLoop=1;jettySize=auto;html=1;exitX=0.5;exitY=1;exitDx=0;exitDy=0;entryX=0.5;entryY=1;entryDx=0;entryDy=0;" edge="1" parent="1" source="B8HwfaoiHPc71-ni4vZY-31" target="B8HwfaoiHPc71-ni4vZY-50">
          <mxGeometry relative="1" as="geometry" />
        </mxCell>
        <mxCell id="B8HwfaoiHPc71-ni4vZY-31" value="Parasol ganglion cells" style="rounded=0;whiteSpace=wrap;html=1;" vertex="1" parent="1">
          <mxGeometry x="150" y="675" width="120" height="60" as="geometry" />
        </mxCell>
        <mxCell id="B8HwfaoiHPc71-ni4vZY-51" style="edgeStyle=orthogonalEdgeStyle;rounded=0;orthogonalLoop=1;jettySize=auto;html=1;exitX=0.5;exitY=1;exitDx=0;exitDy=0;entryX=0.5;entryY=1;entryDx=0;entryDy=0;" edge="1" parent="1" source="B8HwfaoiHPc71-ni4vZY-32" target="B8HwfaoiHPc71-ni4vZY-50">
          <mxGeometry relative="1" as="geometry" />
        </mxCell>
        <mxCell id="B8HwfaoiHPc71-ni4vZY-32" value="Midget ganglion cells" style="rounded=0;whiteSpace=wrap;html=1;" vertex="1" parent="1">
          <mxGeometry x="20" y="675" width="120" height="60" as="geometry" />
        </mxCell>
        <mxCell id="B8HwfaoiHPc71-ni4vZY-42" value="r-g cone&lt;div&gt;channel&lt;/div&gt;" style="text;html=1;align=center;verticalAlign=middle;whiteSpace=wrap;rounded=0;" vertex="1" parent="1">
          <mxGeometry x="20" y="565" width="60" height="30" as="geometry" />
        </mxCell>
        <mxCell id="B8HwfaoiHPc71-ni4vZY-43" value="lum cone +&lt;div&gt;rod channels&lt;/div&gt;" style="text;html=1;align=center;verticalAlign=middle;whiteSpace=wrap;rounded=0;" vertex="1" parent="1">
          <mxGeometry x="150" y="576" width="60" height="30" as="geometry" />
        </mxCell>
        <mxCell id="B8HwfaoiHPc71-ni4vZY-44" value="b-y cone&lt;div&gt;channel&lt;/div&gt;" style="text;html=1;align=center;verticalAlign=middle;whiteSpace=wrap;rounded=0;" vertex="1" parent="1">
          <mxGeometry x="310" y="626" width="60" height="30" as="geometry" />
        </mxCell>
        <mxCell id="B8HwfaoiHPc71-ni4vZY-46" value="lum cone + rod channels" style="text;html=1;align=center;verticalAlign=middle;whiteSpace=wrap;rounded=0;" vertex="1" parent="1">
          <mxGeometry x="292.5" y="480" width="135" height="30" as="geometry" />
        </mxCell>
        <mxCell id="B8HwfaoiHPc71-ni4vZY-47" value="Area&lt;div&gt;direction&lt;/div&gt;&lt;div&gt;selectivity&lt;/div&gt;" style="text;html=1;align=center;verticalAlign=middle;resizable=0;points=[];autosize=1;strokeColor=none;fillColor=none;" vertex="1" parent="1">
          <mxGeometry x="460" y="616" width="80" height="60" as="geometry" />
        </mxCell>
        <mxCell id="B8HwfaoiHPc71-ni4vZY-48" value="1 channel" style="text;html=1;align=center;verticalAlign=middle;whiteSpace=wrap;rounded=0;" vertex="1" parent="1">
          <mxGeometry x="170" y="333" width="80" height="30" as="geometry" />
        </mxCell>
        <mxCell id="B8HwfaoiHPc71-ni4vZY-50" value="Lateral Geniculate Nucleus (LGN)" style="rounded=0;whiteSpace=wrap;html=1;" vertex="1" parent="1">
          <mxGeometry x="630" y="676" width="440" height="60" as="geometry" />
        </mxCell>
        <mxCell id="B8HwfaoiHPc71-ni4vZY-55" value="Optic nerve spikes" style="text;html=1;align=center;verticalAlign=middle;resizable=0;points=[];autosize=1;strokeColor=none;fillColor=none;" vertex="1" parent="1">
          <mxGeometry x="520" y="760" width="120" height="30" as="geometry" />
        </mxCell>
        <mxCell id="B8HwfaoiHPc71-ni4vZY-56" value="" style="rounded=0;whiteSpace=wrap;html=1;" vertex="1" parent="1">
          <mxGeometry x="630" y="500" width="440" height="120" as="geometry" />
        </mxCell>
        <mxCell id="B8HwfaoiHPc71-ni4vZY-62" style="edgeStyle=orthogonalEdgeStyle;rounded=0;orthogonalLoop=1;jettySize=auto;html=1;exitX=0.5;exitY=0;exitDx=0;exitDy=0;entryX=0.5;entryY=1;entryDx=0;entryDy=0;" edge="1" parent="1" source="B8HwfaoiHPc71-ni4vZY-50" target="B8HwfaoiHPc71-ni4vZY-57">
          <mxGeometry relative="1" as="geometry">
            <mxPoint x="710" y="650" as="sourcePoint" />
            <Array as="points">
              <mxPoint x="850" y="650" />
              <mxPoint x="710" y="650" />
            </Array>
          </mxGeometry>
        </mxCell>
        <mxCell id="B8HwfaoiHPc71-ni4vZY-63" style="edgeStyle=orthogonalEdgeStyle;rounded=0;orthogonalLoop=1;jettySize=auto;html=1;exitX=1;exitY=0.5;exitDx=0;exitDy=0;entryX=0;entryY=0.5;entryDx=0;entryDy=0;" edge="1" parent="1" source="B8HwfaoiHPc71-ni4vZY-57" target="B8HwfaoiHPc71-ni4vZY-58">
          <mxGeometry relative="1" as="geometry" />
        </mxCell>
        <mxCell id="B8HwfaoiHPc71-ni4vZY-57" value="Layer 4 (input)" style="rounded=0;whiteSpace=wrap;html=1;" vertex="1" parent="1">
          <mxGeometry x="650" y="516" width="120" height="60" as="geometry" />
        </mxCell>
        <mxCell id="B8HwfaoiHPc71-ni4vZY-64" style="edgeStyle=orthogonalEdgeStyle;rounded=0;orthogonalLoop=1;jettySize=auto;html=1;exitX=1;exitY=0.5;exitDx=0;exitDy=0;entryX=0;entryY=0.5;entryDx=0;entryDy=0;" edge="1" parent="1" source="B8HwfaoiHPc71-ni4vZY-58" target="B8HwfaoiHPc71-ni4vZY-59">
          <mxGeometry relative="1" as="geometry" />
        </mxCell>
        <mxCell id="B8HwfaoiHPc71-ni4vZY-58" value="Layer 2/3 (integration and horizontal interaction)" style="rounded=0;whiteSpace=wrap;html=1;" vertex="1" parent="1">
          <mxGeometry x="790" y="516" width="120" height="60" as="geometry" />
        </mxCell>
        <mxCell id="B8HwfaoiHPc71-ni4vZY-66" style="edgeStyle=orthogonalEdgeStyle;rounded=0;orthogonalLoop=1;jettySize=auto;html=1;exitX=0.5;exitY=0;exitDx=0;exitDy=0;entryX=0.5;entryY=1;entryDx=0;entryDy=0;" edge="1" parent="1" source="B8HwfaoiHPc71-ni4vZY-59" target="B8HwfaoiHPc71-ni4vZY-65">
          <mxGeometry relative="1" as="geometry" />
        </mxCell>
        <mxCell id="B8HwfaoiHPc71-ni4vZY-59" value="Layer 5/6 (output and feedback)" style="rounded=0;whiteSpace=wrap;html=1;" vertex="1" parent="1">
          <mxGeometry x="930" y="516" width="120" height="60" as="geometry" />
        </mxCell>
        <mxCell id="B8HwfaoiHPc71-ni4vZY-60" value="Primary visual cortex (V1)" style="text;html=1;align=center;verticalAlign=middle;resizable=0;points=[];autosize=1;strokeColor=none;fillColor=none;" vertex="1" parent="1">
          <mxGeometry x="770" y="590" width="160" height="30" as="geometry" />
        </mxCell>
        <mxCell id="B8HwfaoiHPc71-ni4vZY-71" style="edgeStyle=orthogonalEdgeStyle;rounded=0;orthogonalLoop=1;jettySize=auto;html=1;exitX=0.5;exitY=0;exitDx=0;exitDy=0;entryX=0.5;entryY=1;entryDx=0;entryDy=0;" edge="1" parent="1" source="B8HwfaoiHPc71-ni4vZY-65" target="B8HwfaoiHPc71-ni4vZY-67">
          <mxGeometry relative="1" as="geometry" />
        </mxCell>
        <mxCell id="B8HwfaoiHPc71-ni4vZY-65" value="V2 cortex" style="rounded=0;whiteSpace=wrap;html=1;" vertex="1" parent="1">
          <mxGeometry x="790" y="378" width="120" height="60" as="geometry" />
        </mxCell>
        <mxCell id="B8HwfaoiHPc71-ni4vZY-70" style="edgeStyle=orthogonalEdgeStyle;rounded=0;orthogonalLoop=1;jettySize=auto;html=1;exitX=0.5;exitY=0;exitDx=0;exitDy=0;entryX=0.5;entryY=1;entryDx=0;entryDy=0;" edge="1" parent="1" source="B8HwfaoiHPc71-ni4vZY-67" target="B8HwfaoiHPc71-ni4vZY-68">
          <mxGeometry relative="1" as="geometry" />
        </mxCell>
        <mxCell id="B8HwfaoiHPc71-ni4vZY-67" value="V4 cortex" style="rounded=0;whiteSpace=wrap;html=1;" vertex="1" parent="1">
          <mxGeometry x="790" y="250" width="120" height="60" as="geometry" />
        </mxCell>
        <mxCell id="B8HwfaoiHPc71-ni4vZY-69" style="edgeStyle=orthogonalEdgeStyle;rounded=0;orthogonalLoop=1;jettySize=auto;html=1;exitX=0.5;exitY=0;exitDx=0;exitDy=0;" edge="1" parent="1" source="B8HwfaoiHPc71-ni4vZY-68">
          <mxGeometry relative="1" as="geometry">
            <mxPoint x="850" y="50" as="targetPoint" />
          </mxGeometry>
        </mxCell>
        <mxCell id="B8HwfaoiHPc71-ni4vZY-68" value="Inferotemporal cortex (IT)" style="rounded=0;whiteSpace=wrap;html=1;" vertex="1" parent="1">
          <mxGeometry x="790" y="120" width="120" height="60" as="geometry" />
        </mxCell>
        <mxCell id="B8HwfaoiHPc71-ni4vZY-72" value="To the inner brain" style="text;html=1;align=center;verticalAlign=middle;resizable=0;points=[];autosize=1;strokeColor=none;fillColor=none;" vertex="1" parent="1">
          <mxGeometry x="850" y="70" width="120" height="30" as="geometry" />
        </mxCell>
        <mxCell id="B8HwfaoiHPc71-ni4vZY-73" value="Synapse" style="text;html=1;align=center;verticalAlign=middle;resizable=0;points=[];autosize=1;strokeColor=none;fillColor=none;" vertex="1" parent="1">
          <mxGeometry x="920" y="450" width="70" height="30" as="geometry" />
        </mxCell>
        <mxCell id="B8HwfaoiHPc71-ni4vZY-74" value="Synapse" style="text;html=1;align=center;verticalAlign=middle;resizable=0;points=[];autosize=1;strokeColor=none;fillColor=none;" vertex="1" parent="1">
          <mxGeometry x="850" y="333" width="70" height="30" as="geometry" />
        </mxCell>
        <mxCell id="B8HwfaoiHPc71-ni4vZY-75" value="Synapse" style="text;html=1;align=center;verticalAlign=middle;resizable=0;points=[];autosize=1;strokeColor=none;fillColor=none;" vertex="1" parent="1">
          <mxGeometry x="850" y="200" width="70" height="30" as="geometry" />
        </mxCell>
        <mxCell id="B8HwfaoiHPc71-ni4vZY-76" value="Spikes" style="text;html=1;align=center;verticalAlign=middle;resizable=0;points=[];autosize=1;strokeColor=none;fillColor=none;rotation=-90;" vertex="1" parent="1">
          <mxGeometry x="890" y="556" width="60" height="30" as="geometry" />
        </mxCell>
        <mxCell id="B8HwfaoiHPc71-ni4vZY-77" value="Spikes" style="text;html=1;align=center;verticalAlign=middle;resizable=0;points=[];autosize=1;strokeColor=none;fillColor=none;rotation=-90;" vertex="1" parent="1">
          <mxGeometry x="750" y="556" width="60" height="30" as="geometry" />
        </mxCell>
        <mxCell id="B8HwfaoiHPc71-ni4vZY-78" value="Spikes" style="text;html=1;align=center;verticalAlign=middle;resizable=0;points=[];autosize=1;strokeColor=none;fillColor=none;" vertex="1" parent="1">
          <mxGeometry x="750" y="626" width="60" height="30" as="geometry" />
        </mxCell>
      </root>
    </mxGraphModel>
  </diagram>
</mxfile>
